Coordinates
version=1
nRows=32
nColumns=12
inDegrees=yes

Units are S.I. units (second, meters, Newtons, ...)
Angles are in degrees

endheader
time	SC_y	SC_z	SC_x	AC_y	AC_z	AC_x	GH_y	GH_z	GH_yy	EL_x	PS_y
       0.0              -54.15          21.57           17.4          35.82          2.613          -11.6         -140.8          44.03          41.65          101.1          48.13
   0.01414              -54.15          21.57           17.4          35.82          2.613          -11.6         -140.8          44.03          41.63          101.1          48.13
   0.02827              -54.14          21.58          17.41          35.82          2.614          -11.6         -140.7          44.03           41.6          101.1          48.12
   0.04241              -54.14          21.58          17.41          35.82          2.615          -11.6         -140.7          44.03          41.57          101.2          48.12
   0.05654              -54.13          21.58          17.42          35.82          2.615          -11.6         -140.7          44.02          41.54          101.2          48.11
   0.07068              -54.13          21.58          17.42          35.83          2.616         -11.59         -140.7          44.02           41.5          101.2           48.1
   0.08481              -54.12          21.59          17.43          35.83          2.617         -11.59         -140.6          44.02          41.47          101.2           48.1
   0.09895              -54.12          21.59          17.43          35.83          2.618         -11.59         -140.6          44.02          41.43          101.2          48.09
    0.1131              -54.11          21.59          17.44          35.83          2.619         -11.59         -140.6          44.02          41.38          101.2          48.08
    0.1272              -54.11           21.6          17.45          35.83           2.62         -11.58         -140.5          44.02          41.34          101.2          48.07
    0.1414               -54.1           21.6          17.46          35.84          2.621         -11.58         -140.5          44.02          41.29          101.2          48.06
    0.1555              -54.09          21.61          17.47          35.84          2.622         -11.58         -140.4          44.02          41.24          101.2          48.05
    0.1696              -54.09          21.61          17.48          35.84          2.623         -11.57         -140.4          44.01          41.18          101.2          48.04
    0.1838              -54.08          21.62          17.49          35.85          2.624         -11.57         -140.3          44.01          41.12          101.2          48.03
    0.1979              -54.07          21.62           17.5          35.85          2.626         -11.57         -140.3          44.01          41.06          101.2          48.02
     0.212              -54.06          21.63          17.51          35.85          2.627         -11.56         -140.2          44.01          40.99          101.2          48.01
    0.2262              -54.05          21.64          17.52          35.86          2.629         -11.56         -140.2          44.01          40.91          101.2          47.99
    0.2403              -54.04          21.64          17.54          35.86          2.631         -11.55         -140.1           44.0          40.83          101.2          47.98
    0.2544              -54.02          21.65          17.55          35.87          2.632         -11.55         -140.0           44.0          40.73          101.2          47.96
    0.2686              -54.01          21.66          17.57          35.87          2.635         -11.54         -140.0           44.0          40.63          101.2          47.94
    0.2827              -53.99          21.67          17.59          35.88          2.637         -11.53         -139.9           44.0          40.52          101.2          47.92
    0.2968              -53.98          21.68          17.61          35.89           2.64         -11.52         -139.8          43.99           40.4          101.2           47.9
     0.311              -53.96          21.69          17.63          35.89          2.642         -11.52         -139.7          43.99          40.27          101.2          47.87
    0.3251              -53.94           21.7          17.65           35.9          2.646         -11.51         -139.5          43.98          40.12          101.2          47.84
    0.3392              -53.91          21.72          17.68          35.91          2.649          -11.5         -139.4          43.98          39.95          101.2          47.81
    0.3534              -53.89          21.73          17.71          35.92          2.653         -11.48         -139.3          43.97          39.77          101.2          47.78
    0.3675              -53.86          21.75          17.75          35.93          2.657         -11.47         -139.1          43.97          39.56          101.2          47.74
    0.3816              -53.83          21.77          17.79          35.95          2.662         -11.46         -138.9          43.96          39.33          101.2           47.7
    0.3958              -53.79          21.79          17.83          35.96          2.668         -11.44         -138.7          43.95          39.07          101.3          47.65
    0.4099              -53.75          21.82          17.88          35.98          2.674         -11.42         -138.5          43.94          38.77          101.3          47.59
    0.4241               -53.7          21.85          17.94           36.0          2.681          -11.4         -138.2          43.93          38.43          101.3          47.53
    0.4382              -53.65          21.88          18.01          36.02           2.69         -11.37         -137.9          43.92          38.04          101.3          47.45
